<svg viewBox="0 0 1024 1024" xmlns="http://www.w3.org/2000/svg">
  <defs>
    <linearGradient id="bg" x1="0" y1="0" x2="1024" y2="1024" gradientUnits="userSpaceOnUse">
      <stop offset="0" stop-color="#22344A"/>
      <stop offset="1" stop-color="#111925"/>
    </linearGradient>
  </defs>
  <rect width="1024" height="1024" rx="224" fill="url(#bg)"/>
  <g transform="translate(10.4 37) scale(9.5)" stroke-linecap="round" fill="none">
    <line x1="21.3" y1="47.9" x2="21.3" y2="52.1" stroke="#5FB3A3" stroke-width="2.6"/>
    <line x1="25.8" y1="47.2" x2="25.8" y2="52.8" stroke="#5FB3A3" stroke-width="2.6"/>
    <line x1="30.3" y1="46.15" x2="30.3" y2="53.85" stroke="#5FB3A3" stroke-width="2.6"/>
    <line x1="34.8" y1="46.5" x2="34.8" y2="53.5" stroke="#5FB3A3" stroke-width="2.6"/>
    <line x1="39.3" y1="45.1" x2="39.3" y2="54.9" stroke="#5FB3A3" stroke-width="2.6"/>
    <line x1="43.8" y1="45.8" x2="43.8" y2="54.2" stroke="#5FB3A3" stroke-width="2.6"/>
    <line x1="48.3" y1="44.05" x2="48.3" y2="55.95" stroke="#5FB3A3" stroke-width="2.6"/>
    <line x1="52.8" y1="43" x2="52.8" y2="57" stroke="#D9A94B" stroke-width="2.6"/>
    <line x1="57.3" y1="44.05" x2="57.3" y2="55.95" stroke="#5FB3A3" stroke-width="2.6"/>
    <line x1="61.8" y1="45.8" x2="61.8" y2="54.2" stroke="#5FB3A3" stroke-width="2.6"/>
    <line x1="66.3" y1="45.1" x2="66.3" y2="54.9" stroke="#5FB3A3" stroke-width="2.6"/>
    <line x1="70.8" y1="46.5" x2="70.8" y2="53.5" stroke="#5FB3A3" stroke-width="2.6"/>
    <line x1="75.3" y1="46.15" x2="75.3" y2="53.85" stroke="#5FB3A3" stroke-width="2.6"/>
    <line x1="79.8" y1="47.2" x2="79.8" y2="52.8" stroke="#5FB3A3" stroke-width="2.6"/>
    <line x1="84.3" y1="47.9" x2="84.3" y2="52.1" stroke="#5FB3A3" stroke-width="2.6"/>
  </g>
</svg>
